<svg xmlns="http://www.w3.org/2000/svg" version="1.1" xmlns:xlink="http://www.w3.org/1999/xlink" xmlns:svgjs="http://svgjs.com/svgjs" width="1440" height="560" preserveAspectRatio="none" viewBox="0 0 1440 560"><g mask="url(&quot;#SvgjsMask1048&quot;)" fill="none"><rect width="1440" height="560" x="0" y="0" fill="rgba(255, 255, 255, 1)"></rect><path d="M0 481.05L10 543.13L20 480.9L30 538.04L40 477.79L50 511.42L60 559.78L70 504.01L80 499.14L90 468.69L100 511.49L110 480.81L120 495.27L130 555.28L140 555.56L150 526.58L160 516.89L170 472.3L180 458.06L190 513.75L200 514.71L210 460.94L220 422.16L230 459.15L240 397.52L250 351.67L260 373.39L270 382.65L280 350L290 365.93L300 392.37L310 324.05L320 318.76L330 300.56L340 355.56L350 408.77L360 397.28L370 436.8L380 424.99L390 377.32L400 414.75L410 448.1L420 509.85L430 469.42L440 453.12L450 393.8L460 394.6L470 425.47L480 420.53L490 434.69L500 444.51L510 439.91L520 505.36L530 526.99L540 471.53L550 491.89L560 509.52L570 546.48L580 543.09L590 530.46L600 460.46L610 506.43L620 451.86L630 504.43L640 451.27L650 416.74L660 462.04L670 486.39L680 439.79L690 395.91L700 414.96L710 476.19L720 476.37L730 409.42L740 438.1L750 505.1L760 453.24L770 457.74L780 442.88L790 398.6L800 366.79L810 425.38L820 386.24L830 425.43L840 426.92L850 454.32L860 473.63L870 515.62L880 535.52L890 524.52L900 522.29L910 465.2L920 460L930 487.19L940 436.54L950 416.64L960 456.61L970 420.6L980 449.75L990 491.87L1000 507.54L1010 463.12L1020 401.21L1030 410.03L1040 391.83L1050 395.47L1060 354.66L1070 366.92L1080 366.65L1090 377.99L1100 382.52L1110 344.75L1120 334L1130 327.56L1140 369.27L1150 388.06L1160 388.96L1170 348.29L1180 307.2L1190 327.61L1200 371.8L1210 338.57L1220 321.39L1230 274.67L1240 271.52L1250 257.74L1260 314.65L1270 374.6L1280 380.94L1290 328.6L1300 300.14L1310 342.86L1320 344.95L1330 396.28L1340 453.63L1350 406.03L1360 348.42L1370 412.43L1380 445.88L1390 435.9L1400 424.07L1410 398.07L1420 329.46L1430 342.02L1440 329.25" stroke="rgba(35, 141, 246, 1)" stroke-width="2"></path><path d="M0 481.05L10 543.13L20 480.9L30 538.04L40 477.79L50 511.42L60 559.78L70 504.01L80 499.14L90 468.69L100 511.49L110 480.81L120 495.27L130 555.28L140 555.56L150 526.58L160 516.89L170 472.3L180 458.06L190 513.75L200 514.71L210 460.94L220 422.16L230 459.15L240 397.52L250 351.67L260 373.39L270 382.65L280 350L290 365.93L300 392.37L310 324.05L320 318.76L330 300.56L340 355.56L350 408.77L360 397.28L370 436.8L380 424.99L390 377.32L400 414.75L410 448.1L420 509.85L430 469.42L440 453.12L450 393.8L460 394.6L470 425.47L480 420.53L490 434.69L500 444.51L510 439.91L520 505.36L530 526.99L540 471.53L550 491.89L560 509.52L570 546.48L580 543.09L590 530.46L600 460.46L610 506.43L620 451.86L630 504.43L640 451.27L650 416.74L660 462.04L670 486.39L680 439.79L690 395.91L700 414.96L710 476.19L720 476.37L730 409.42L740 438.1L750 505.1L760 453.24L770 457.74L780 442.88L790 398.6L800 366.79L810 425.38L820 386.24L830 425.43L840 426.92L850 454.32L860 473.63L870 515.62L880 535.52L890 524.52L900 522.29L910 465.2L920 460L930 487.19L940 436.54L950 416.64L960 456.61L970 420.6L980 449.75L990 491.87L1000 507.54L1010 463.12L1020 401.21L1030 410.03L1040 391.83L1050 395.47L1060 354.66L1070 366.92L1080 366.65L1090 377.99L1100 382.52L1110 344.75L1120 334L1130 327.56L1140 369.27L1150 388.06L1160 388.96L1170 348.29L1180 307.2L1190 327.61L1200 371.8L1210 338.57L1220 321.39L1230 274.67L1240 271.52L1250 257.74L1260 314.65L1270 374.6L1280 380.94L1290 328.6L1300 300.14L1310 342.86L1320 344.95L1330 396.28L1340 453.63L1350 406.03L1360 348.42L1370 412.43L1380 445.88L1390 435.9L1400 424.07L1410 398.07L1420 329.46L1430 342.02L1440 329.25L1440 560L0 560z" fill="url(#SvgjsLinearGradient1049)"></path></g><defs><mask id="SvgjsMask1048"><rect width="1440" height="560" fill="#ffffff"></rect></mask><linearGradient x1="50%" y1="0%" x2="50%" y2="100%" id="SvgjsLinearGradient1049"><stop stop-opacity="0.65" stop-color="rgba(35, 141, 246, 1)" offset="0"></stop><stop stop-opacity="0" stop-color="#ffffff" offset="0.8"></stop></linearGradient></defs></svg>